/* XPM */
static char *_84412973b5641d4ca16efce264d3af6kFuOAfRujcUpTJSx[] = {
/* columns rows colors chars-per-pixel */
"56 56 146 2 ",
"   c None",
".  c #7C3420",
"X  c #853B1C",
"o  c #A15217",
"O  c #AC5914",
"+  c #A05118",
"@  c #B15E11",
"#  c #BA660E",
"$  c #BB6610",
"%  c #BD6912",
"&  c #85412D",
"*  c #A0592D",
"=  c #BC6F27",
"-  c #C6710F",
";  c #CB740C",
":  c #CE7C0C",
">  c #D0770A",
",  c #D17B0B",
"<  c #C47E13",
"1  c #875145",
"2  c #AD785C",
"3  c #B57A57",
"4  c #B57B59",
"5  c #D7830E",
"6  c #DA830D",
"7  c #DD8C0E",
"8  c #C48415",
"9  c #D18013",
"0  c #DB8912",
"q  c #D89C14",
"w  c #E38709",
"e  c #E48909",
"r  c #EB9106",
"t  c #E4930A",
"y  c #EA910B",
"u  c #E19B0E",
"i  c #EA9C0A",
"p  c #F39A04",
"a  c #E28E1F",
"s  c #DFA313",
"d  c #DDB717",
"f  c #DEBC17",
"g  c #D8B619",
"h  c #E2A30F",
"j  c #EBA40C",
"k  c #F5A006",
"l  c #F4A609",
"z  c #F5AD0B",
"x  c #F5B40D",
"c  c #F6BA0F",
"v  c #F8BB0E",
"b  c #E1A612",
"n  c #E1A912",
"m  c #EBAC10",
"M  c #E6A51A",
"N  c #ECA51D",
"B  c #E5AA1D",
"V  c #ECB414",
"C  c #E2BE16",
"Z  c #EEB912",
"A  c #F7B115",
"S  c #F4BD11",
"D  c #F7B51F",
"F  c #DB9A31",
"G  c #E29727",
"H  c #DFA43F",
"J  c #EAAF20",
"K  c #F7AF26",
"L  c #F0A92F",
"P  c #EDB028",
"I  c #F8B722",
"U  c #F4BC21",
"Y  c #F6B52A",
"T  c #F6B331",
"R  c #F8B731",
"E  c #F2BA35",
"W  c #F9BC38",
"Q  c #DAC41B",
"!  c #DEC91B",
"~  c #E2C017",
"^  c #EEC114",
"/  c #EDC815",
"(  c #E0C01A",
")  c #F5C312",
"_  c #F8C311",
"`  c #F5CC14",
"'  c #F8CB13",
"]  c #F0CE19",
"[  c #EED117",
"{  c #F4D416",
"}  c #F8D215",
"|  c #F5DB16",
" . c #F8DA16",
".. c #F4D41A",
"X. c #F8D31D",
"o. c #F5DD1B",
"O. c #F8D919",
"+. c #F7E217",
"@. c #F8E317",
"#. c #F6E419",
"$. c #F8E718",
"%. c #F8E919",
"&. c #EFC42A",
"*. c #EFC928",
"=. c #F7C621",
"-. c #F5CA20",
";. c #F8CA25",
":. c #F6D422",
">. c #F6DC26",
",. c #E2C63D",
"<. c #E9CE3A",
"1. c #F8C433",
"2. c #F5C930",
"3. c #FAC936",
"4. c #FAC53F",
"5. c #ECD23D",
"6. c #F5D435",
"7. c #FAD935",
"8. c #FAD339",
"9. c #F7E335",
"0. c #B68367",
"q. c #B78971",
"w. c #B78F7A",
"e. c #CC8B44",
"r. c #D49C45",
"t. c #C8A342",
"y. c #CBA947",
"u. c #DDA247",
"i. c #D3A14A",
"p. c #DFA657",
"a. c #F3B042",
"s. c #C08F66",
"d. c #FBDE4C",
"f. c #EDC15C",
"g. c #FBD956",
"h. c #FDD459",
"j. c #FDDE5E",
"k. c #FAE442",
"l. c #FAE34B",
"z. c #FAE94B",
"x. c #FBE051",
"c. c #FAE85A",
"v. c #EDC362",
"b. c #FDDA62",
"n. c #FDE065",
"m. c #FCE465",
/* pixels */
"                                                                                                                ",
"                                                                                                                ",
"                                                                                                                ",
"                                                                                                                ",
"                                                                                                                ",
"                                                                                                                ",
"                                                                                                                ",
"                                                                                                                ",
"                                                                                                                ",
"                                                                                                                ",
"                                                                                                                ",
"                                                                                                                ",
"                                                                                                                ",
"                                                                                                                ",
"                                                                                                                ",
"                                                                                                                ",
"                                                                                                                ",
"                                                . O O # @ @ O .                                                 ",
"                                            X % 9 7 t.f.f.r.0 , % X                                             ",
"                                          + ; M f.| } } ' _ _ s t ; +                                           ",
"                                        = i C |  . .} } ' ' _ v x u r $                                         ",
"                                      * N | +.[  . .} } ' _ _ v x x k r +                                       ",
"                                    & e.~ +.` Z  . .} ` ` ) v c c j j 0 ; X                                     ",
"                                    s.B o.c.-.V { { { ^ ) c _ v ) z p p e %                                     ",
"                                  1 r.! %.z.5.U m ] 6.8.3.J A ` _ z p k 7 > X                                   ",
"                                  w.u.%.%.$.| -.2.l.m.n.b.h.W ) v z z p p , @                                   ",
"                                  q.y.%.$.#.@.[ ~ k.d.j.h.d.R z v z l k p - @                                   ",
"                                  4 <.%.$.$.$.[ f O.X.;.A S x l x z l k p r @                                   ",
"                                  4 <.%.$.#.$.| >.>.X.' A S J I v z l k p w @                                   ",
"                                  0.t.%.$.$.@.{ 5.l.7.&.V A K D x z l k p ; @                                   ",
"                                  2 F %.%.#.#.| { O.x.g.1.z l S x z l k p , O                                   ",
"                                  . 9 ! $.#.9.:.) Z X.=.=.S ) x l l l k 6 > .                                   ",
"                                    % b | #.z.:.) ) { ` ' _ ) c l p z L a %                                     ",
"                                    X ; f #.+./ _ / { } ' ) s c x z T p.; X                                     ",
"                                      + i { #.+.}  . .' ' _ _ c x Y a.y o                                       ",
"                                        # i f [  . .} } ' _ _ v E u.y #                                         ",
"                                          o ; u g  . .' ' _ _ q G ; +                                           ",
"                                            X % , 6 8 n b 8 6 , % X                                             ",
"                                                . O @ @ @ @ O .                                                 ",
"                                                                                                                ",
"                                                                                                                ",
"                                                                                                                ",
"                                                                                                                ",
"                                                                                                                ",
"                                                                                                                ",
"                                                                                                                ",
"                                                                                                                ",
"                                                                                                                ",
"                                                                                                                ",
"                                                                                                                ",
"                                                                                                                ",
"                                                                                                                ",
"                                                                                                                ",
"                                                                                                                ",
"                                                                                                                ",
"                                                                                                                "
};
