/* XPM */
static char *_b969e7072f341b7bc39d9b9f5cb9226hOpSqkTcPg1Kg60N[] = {
/* columns rows colors chars-per-pixel */
"56 56 111 2 ",
"   c #020306",
".  c #05040C",
"X  c #08070F",
"o  c #07080C",
"O  c #09090E",
"+  c #10120F",
"@  c #060612",
"#  c #080714",
"$  c #070A14",
"%  c #0B0A13",
"&  c #0D0D15",
"*  c #060518",
"=  c #070618",
"-  c #080619",
";  c #08071B",
":  c #090819",
">  c #0C0B18",
",  c #0D0D18",
"<  c #0F0F19",
"1  c #0E0E1A",
"2  c #0A091D",
"3  c #0D0B1F",
"4  c #0D0C1C",
"5  c #0F0E1D",
"6  c #100F17",
"7  c #100F1C",
"8  c #100F1D",
"9  c #0F1013",
"0  c #0F1014",
"q  c #101014",
"w  c #111216",
"e  c #131416",
"r  c #111119",
"t  c #10101A",
"y  c #12121A",
"u  c #13131B",
"i  c #151619",
"p  c #14151A",
"a  c #10101D",
"s  c #13121E",
"d  c #15151D",
"f  c #16151D",
"g  c #16161C",
"h  c #16161D",
"j  c #14141F",
"k  c #17161E",
"l  c #171819",
"z  c #18191E",
"x  c #0B0923",
"c  c #0C0B23",
"v  c #0E0C23",
"b  c #100F21",
"n  c #110E29",
"m  c #121221",
"M  c #141223",
"N  c #141420",
"B  c #151422",
"V  c #161622",
"C  c #181726",
"Z  c #181820",
"A  c #191921",
"S  c #181823",
"D  c #1C1D21",
"F  c #1C1C23",
"G  c #191925",
"H  c #1A1A25",
"J  c #1B1A27",
"K  c #1D1D25",
"L  c #1E1E24",
"P  c #15132A",
"I  c #19172D",
"U  c #1E1E28",
"Y  c #1D1D2A",
"T  c #181531",
"R  c #1B1A33",
"E  c #201F31",
"W  c #221F39",
"Q  c #212226",
"!  c #232329",
"~  c #21212D",
"^  c #22222C",
"/  c #242333",
"(  c #242430",
")  c #272633",
"_  c #2B2B32",
"`  c #2A2A35",
"'  c #2C2B37",
"]  c #262438",
"[  c #29273B",
"{  c #2E2E3B",
"}  c #302F3D",
"|  c #30303A",
" . c #32313D",
".. c #272342",
"X. c #2D2B44",
"o. c #343343",
"O. c #3B3B42",
"+. c #3A3A45",
"@. c #363448",
"#. c #383748",
"$. c #3D3C4A",
"%. c #403E52",
"&. c #404047",
"*. c #444354",
"=. c #44415D",
"-. c #4A495A",
";. c #4C4B5C",
":. c #54545F",
">. c #4D4C61",
",. c #6D6C7A",
"<. c #73748F",
/* pixels */
"X % & % 6 . . X % X . . . X X X X % . % o o y . % . % . .   & k % k , G | & % : 6 O   X y 7 > N @.@ & k e 6 . . ",
"& . 6 % X & . O . . X . . . . @ . . % X 0 # = = . @ . % . . , O.B o % w & . , & @ @   . X . $ > 7 @ % X % % # X ",
"& . & X @ . k . . . % % X O #   . . . X o # W x N k % . . @ % X p . k & . , @ % X   X   o O X y C X @ X 6 . . . ",
". $ % G % X @ X . % % % # # % . . X X . X ~ 2 = a & y . $ & . X $ y k % . o & . X . u X o . y % > # z X . 6 X . ",
"# % % 7 % % 7 N % % $ . # @ #   . . @ w & & @ $ a   t , z $ @ . O O 9 X # % . . % X 6 X _ . u K N . w .   . . . ",
"5 . # # @ $ . N y % % @ , , % % & . . w O . & & ! e . L $ y . @ O O   y = $ . . % X . % @ . X e O X % K # 6 6 . ",
"y O . % # . : N k . 6 # a $ . # k % . Z g . . a k O g g k . 6 %     . a ;.@ o % K % 6 @ ` , &     o % . % X %   ",
"% . @ ( 7 $ # % & @ % , J 7 % & . p y & . w , # % O . & & X   X o   . . . @ . . O % u X u . . . w X 6 . % % 6 X ",
". O 0 . o @ , % @ . @ . 5 , $ % @ . ! . ( = c I # % + z 6 .     $ . % % % X & X o & . O 6 & w % $ @ X . % % . . ",
"0 . : v     O , %   # # @ o # $ % 6 C @ % 6 6 . % $ O o w . O O k . & & & X , y   O     . @ L @ y . . 6 X . . $ ",
"% & N I k o O @ . . . , & o $ & 7 C . @ @ X X . . X o o g O . g . w . y y . . . q   o   . X X y % X %   . w . . ",
". a . a %   g G . , . . . o # y N : : k % X X X @ .   z . @ @ % & . & % K . . %   o   o . . X X & . % X . % % % ",
". . . . O o . & . @ . @ . . % @ Z @ % X X . 6 . % . > % % @ m N . o p & . . y p o % . # X g @ 6 X . y & & % . % ",
"% % O   o X . . :.. l     @ . . 6 % % . X . y % . . / = 7 ,.% # k O $ % &.% . & . k , ~ % g . w & X % . . . .   ",
"X @         % . , . . . . & ! . . % % X X X % . % . ..X.2 , % a % . . k p & t . k m : # @ 6 O 7 & X % . y % . o ",
"& . .   . X . g O @ & @ @ O . @ . u % w 7 > 6 @ @ N $ % N # # %   # = = y 0 $ # = a a . . L X X X k o $ # . o   ",
"u %   . X .   % . . 7 > y O % % . u % X . @ @ $ . 5 V % Y $ # t   ~ c m k . o., $ @ % 6 y X #   k & . ~ k o   O ",
"% % . . X X u k & % > N , w k z 6 . @ z . # Y M # G . , V # . @   , M # . X : $ # $ 6 % 6 z X k & & , & . o q X ",
". % . % . X . X . k , ; # . . . . k & . 5 $ $ # , % 5 $ # @ , . O k ; ;.K X N o . % @ % X X % 6 O a a . .   X . ",
"@   . @   . @   @ % , ; & . % % . u X . $ , a % @ , $ # # # 5 # o = %.v @ O & % . .   . X O X . k @ $ & O   & X ",
". @ o @   . . % . X @ @ % & & % % & % . a . & . . @ % $ $ . % . & > b m L O . % . O X X & o   w   . % .   . O . ",
"% , @ 6   . . . O X o 6 . e .   X X % . . Y k . % . ] = , @ .   G . . o   . @ K & X . . O . .   & . . y k % X & ",
"6 % u @ X % o @ O   . o a O . . w . . . . z . . . % N = . &   . , % . . O o . % k .   . & o   % = y & % X % & . ",
"  % u % % % @ & @ . .   y y % . % % 6 & . X X y : @ = : m % 0 . . % X % X . . @ & . X . O o X % x t & % & @ . % ",
"% , N a u # ) # % . . Y . , ` % @ # $.6 @ . . > G m $ K $ @ @ . . o . . G y . % % & X . o X X . [ ` . . . % % . ",
"M b 2 # 7 % $ # # $ $ # 5 % M m @ , $ y ; : ; ~ 5 % & ` & @ @ $ o o . @ % @ .   .   % O .   g & y , . 6 k . & X ",
"; E ] > . 7 # v # , # # $ @ @ j @ 6 @ a . { N % . % y & . . @ # . o . o 7 % . . . . . . X 6 &   . % . X . . . & ",
"@ % . # = @ % > 5 J = % B % $ Y % &   6 . $ Y N : & y . % . K . *.& O l % ; % . & X . q . O . . . . . y & . % . ",
"@ O   @ B R Y % ' N : a % G $ G @ % .   o q % a } a % % . % . @ N o 0   O.a & & X X X w u . . e X 6 .   % X & . ",
"N O a $ . . N , % @ $ & ( y 6 % , # % . . y y 7 , % . % % @ & . N . @ O w & . . & . . % ! @ . X   . 6 % & % 6 % ",
"% % w . . % . . . a , ! @ k Q 5 ; m k w & w # % # . w . . & . O @ X o o . o g . & k % g & 6 6 % . 6 6 X O u % % ",
". . X . . . . % Y & . & w g @ = >.# &   @ . % V , @ . .   O X & % X &   o o % y . & . y u k . X X . X 6 @ % a % ",
"w     . % . . & & % Z % w Q   ! v 2 . O   O % N % % % . . . . a & . & O   X X . & @ . G % 5 , . % @ . X X % % > ",
"% @ % @ . % %   y . ; Y . G % . $ $ .     y % % & # . 6 # , @ = O . k % X X @ y # . # a = J 5 . 6 X & X X k % $ ",
"& & % ; ( # $ $ ; X.P c P T @ $ k , 6 O O . . & y a & % y # # # 6 & X . @ . # @ @ *.a ) Y : = k % 6 . 6 y . . % ",
"X . % ; *.: # & & = -.= = m I N ~ 6   o   w z % Z % @ 6 . = 5 N & . . . % . y % ~ , # % y & $ @ X % % % . & w . ",
". . & b 7 % @ . o e 9 0 $ O R v 2 & . O o   & & y @ % y 6 , +.> . . X X X X @ @ @ , % , o O % . $ % % . & . & . ",
". . % , , . o . o t % $ $ O <.v 5 . & . . . k a a $ a . a % # 7 X . @ . . . K 6 : $ $ 0 . & y . @ . . @ & & & X ",
"% . # % O . g . = . @ $ S t = N $ . o # O ! # 5 . ! K % C 6 a 6 X % O   . % @ % y $ & p & % O & X % 6 e O % + X ",
"$ ` @ & w @ y $.$ , j a t = @ a . @ , & o & = @ $ 6 y 7 @ 6 $ a . . O X . . O X . & . w . % K . % .   . . . . . ",
"$ , # y O O & k $ , # # @ $ # Y , % a # y . . 5 % 0 : , , . M 7 o % . . $ . % % % & & . . . X % . % . .   & % . ",
"# . # Y K & % a m $ k a @ @ # ! % % # @ o # = 5 , % $ 5 % a . . % . % % k . . o . & & . % . % X X . X % % . X . ",
"# . a >.N y a 7 a B , 5 , . . $ a a : k   # @ N . . $ % : . , a . . % k % . & y . . . % % z . . . X . . . O . @ ",
"# @ 2 ..c : ( o.@ a % $ % : a , . a @ $ & $ ; # . . % 5 , # # u . o & & & w o & & % . g % . % . . . . # X X 6 . ",
". . 2 =.I : N @ @ . o . # a 5 = @ : @ % & # > 7 . q y % a . . & k . . . = & . +.# $ y $ % , N % % o . . # ~ . % ",
". . @ @ Y , a e $ Y % g a m { . N ' N ; o a 5 # .   a ~ ^ . w % O . & G % : ; @ # . a & a k . # % . & % # V % . ",
"& & & @ p g . o % O O   $ = & . % % #.v % , % $ . . &  .% % O @ O o 0 % % . # y , % , Y . , y & u O . @ # { c % ",
"% . 0 o Q k 9 % 9 O e @ @ 2     @ $ = P % % a , # # % N @ % & u % & o O . . . # $ % @ y % . & . . & . . c # % . ",
". . 5 $ $ & % . % O   + . % % . . % % % @ # @ . a o.2 6 7 . & @ @ $ $ . B % . : @ Z N %   o 0 . o % O . , : G . ",
"& % 5 n Y : a Z K % + O O . @ % . K .   @ 6 X g 2 R , : @ % a 6 v P = 5 $ @ = , # m a & o o 0 o O o O . @ 2 m @ ",
", % 5 . @ a % . $ Y $ Z % ` . . O & 6 u 7 > . @ a % & % % . . . ] 5 : a o O . o o $ , . o O o . & . & @ . & % . ",
"# G . S . # % @ % $ % # . . % . &   . . > $ % % a $ &   . & . $ P 2 m . 0 0   . % a # @ % % . k k , @ & O . % % ",
"~ a % t . . K # % & @ G . . . & . % . . # , 5 . # # . % % X L . : = % ,   & . . @ . o o   . . & 6 6 X . . 6 % @ ",
". . . . % % . . 9 X 0 o . X O & O . . % N a , 5 $ : . % X & k O $ % . % . . & % o . . . o . % & @ X   6 % u X e ",
"& o O   o @ . % 0 . O 9 & . . . X X X w ; . $ . % . X 6 % X % 6 % % . . . % y # % o o   . . . & @ . X . . . @ . ",
". a k   o   o O O 0 l o & z y . 6 . & @ a V G % # y . X . X . 6   . % y & $ , Y % o     O . ` . . . . 6 X . k % "
};
