/* XPM */
static char *_202e61713004a2a955f4ecc1b1486a3qtNpi7WL2ZqJzmvA[] = {
/* columns rows colors chars-per-pixel */
"56 56 243 2 ",
"   c None",
".  c black",
"X  c #010000",
"o  c #010101",
"O  c #020100",
"+  c #020200",
"@  c #030200",
"#  c #020202",
"$  c gray1",
"%  c #040402",
"&  c #040404",
"*  c gray2",
"=  c #070707",
"-  c #080600",
";  c #090700",
":  c #0E0B00",
">  c #090805",
",  c #090806",
"<  c gray3",
"1  c #090909",
"2  c gray4",
"3  c #0B0B0B",
"4  c #0C0C0C",
"5  c #0E0E0E",
"6  c gray6",
"7  c #130A00",
"8  c #120B00",
"9  c #100D00",
"0  c #160C00",
"q  c #1C1100",
"w  c #1E1000",
"e  c #1E1300",
"r  c #1D1600",
"t  c #1E1600",
"y  c #1F1900",
"u  c #1E1903",
"i  c #18150E",
"p  c #111111",
"a  c gray7",
"s  c #131313",
"d  c #151515",
"f  c gray9",
"g  c #181818",
"h  c gray10",
"j  c gray11",
"k  c #1D1D1D",
"l  c gray12",
"z  c #211200",
"x  c #2B1800",
"c  c #2B1B00",
"v  c #2C1800",
"b  c #2F1A00",
"n  c #201C14",
"m  c #312700",
"M  c #3B2D00",
"N  c #392E14",
"B  c #202020",
"V  c gray13",
"C  c #252525",
"Z  c gray16",
"A  c #2A2A2A",
"S  c #2E2C2A",
"D  c gray19",
"F  c #343434",
"G  c gray22",
"H  c #393939",
"J  c #3A3A3A",
"K  c gray23",
"L  c #3C3C3C",
"P  c #4F2F00",
"I  c #542F00",
"U  c #473700",
"Y  c #4D3900",
"T  c #4E3E00",
"R  c #583100",
"E  c #533B00",
"W  c #573900",
"Q  c #6C3B00",
"!  c #413D36",
"~  c #5A4B00",
"^  c #644D00",
"/  c #794E00",
"(  c #6C5000",
")  c gray25",
"_  c #414141",
"`  c #494949",
"'  c gray29",
"]  c #4B4B4B",
"[  c #51504E",
"{  c #515151",
"}  c #565656",
"|  c #5E5A57",
" . c #5C5B58",
".. c gray39",
"X. c gray40",
"o. c #7B7B7B",
"O. c #7C7B7B",
"+. c #8D4E00",
"@. c #925000",
"#. c #905500",
"$. c #955500",
"%. c #AB5F00",
"&. c #8C6E00",
"*. c #9E6900",
"=. c #967200",
"-. c #997100",
";. c #A06200",
":. c #B16300",
">. c #B56300",
",. c #B16E00",
"<. c #BC6900",
"1. c #BA6D00",
"2. c #BC6C00",
"3. c #A37400",
"4. c #A77E00",
"5. c #C66D00",
"6. c #C57300",
"7. c #CE7000",
"8. c #DA7700",
"9. c #DF7A00",
"0. c #C17514",
"q. c #E17B00",
"w. c #E17D00",
"e. c #E37C00",
"r. c #E37F00",
"t. c #E47D00",
"y. c #E57D00",
"u. c #E57E00",
"i. c #E57F00",
"p. c #927F6E",
"a. c #A98800",
"s. c #AD8D00",
"d. c #B58400",
"f. c #BB9100",
"g. c #B18F1B",
"h. c #D28D00",
"j. c #DD8F00",
"k. c #C09A00",
"l. c #CD9F00",
"z. c #D19800",
"x. c #D09C00",
"c. c #E18100",
"v. c #E68000",
"b. c #E68100",
"n. c #E68400",
"m. c #E68500",
"M. c #E78500",
"N. c #E78600",
"B. c #E68800",
"V. c #E58A00",
"C. c #E88800",
"Z. c #E88A00",
"A. c #E98B00",
"S. c #E98D00",
"D. c #EA8F00",
"F. c #EA9000",
"G. c #EB9200",
"H. c #EB9400",
"J. c #EC9700",
"K. c #E79D00",
"L. c #ED9900",
"P. c #ED9B00",
"I. c #EE9D00",
"U. c #EE9F00",
"Y. c #CCAA0A",
"T. c #DFA100",
"R. c #DCAC00",
"E. c #DDAF00",
"W. c #DDB100",
"Q. c #EFA100",
"!. c #EEA300",
"~. c #EFA300",
"^. c #E0AC00",
"/. c #E9A900",
"(. c #EDAA00",
"). c #F0A500",
"_. c #F0A600",
"`. c #F1A700",
"'. c #F0A900",
"]. c #F1AA00",
"[. c #F1AB00",
"{. c #F1AD00",
"}. c #F2AC00",
"|. c #F3AE00",
" X c #EBB000",
".X c #E8B200",
"XX c #ECB600",
"oX c #E8BC00",
"OX c #F3B000",
"+X c #F4B200",
"@X c #F1B400",
"#X c #F4B400",
"$X c #F6B600",
"%X c #F6B800",
"&X c #F7BA00",
"*X c #F6BD00",
"=X c #F8BC00",
"-X c #F8BE00",
";X c #D7B637",
":X c #ECC000",
">X c #F4C200",
",X c #F9C000",
"<X c #F9C200",
"1X c #FAC300",
"2X c #FAC400",
"3X c #FAC500",
"4X c #F9C700",
"5X c #FBC700",
"6X c #FBC701",
"7X c #F1C800",
"8X c #F7C800",
"9X c #F7CC00",
"0X c #FBC900",
"qX c #FBCB00",
"wX c #FCCA00",
"eX c #FCCC00",
"rX c #FDCD00",
"tX c #FDCD01",
"yX c #FDCE00",
"uX c #FCD000",
"iX c #FDD100",
"pX c #FCD300",
"aX c #FED200",
"sX c #FED300",
"dX c #FED400",
"fX c #F9CF12",
"gX c #AB8E52",
"hX c #898068",
"jX c #91806E",
"kX c #92826F",
"lX c #95806F",
"zX c #D68F43",
"xX c #D79446",
"cX c #D79946",
"vX c #D89D45",
"bX c #D9B958",
"nX c #DCB963",
"mX c #848484",
"MX c #898888",
"NX c #8B8B8B",
"BX c #8D8D8B",
"VX c #97918B",
"CX c gray65",
/* pixels */
"                                                        %                                                       ",
"                                          , . . . . . . . . . . . . . .                                         ",
"                                    , . . . . . . , s h h h 1 . . . . . . . .                                   ",
"                                . . . . * i Y.uXdXdXdXdXdXdXdXdXdX;X[ 4 . . . . .                               ",
"                            . . . . z 7XdXdXdXdXdXdXdXdXdXdXdXdXdXuXdXdXfX| & . . .                             ",
"                        n . . . ~ uXdXuXdXdXdXuXuXuXuXdXuXuXdXuXdXdXuXdXdXuXuXhX. . . .                         ",
"                      % . . ; 9XuXuXuXuXuXuXuXuXuXdXuXuXuXuXuXuXuXuXuXuXuXuXuXuXuX} . . .                       ",
"                    $ . . s.tXtXtXtXuXuXuXtXuXuXuXtXtXuXuXtXtXuXtXtXuXuXtXuXtXtXtXuXbX% . . .                   ",
"                  $ . . :XtXtXtXtXtXtXtXtXtXtXtXtXtXtXtXtXtXtXtXtXtXtXtXtXtXtXtXtXtXtXtXn . . .                 ",
"                . . . 0XtXtXtXtXtXtXtXtXtXtXtXtXtXtXtXtXtX0XoXoXtXtXtX0X9XtXtXtXtX0XtXtXtXL . . .               ",
"              , . . 4X0X0X0X0X0X0X0X0X0X0X0X0X0X0X0X0X0Xa.. . . 9 k.0X0X0X0X0XtX0X0X0X0XtXtXL . .               ",
"            f . . >X0X0X0X0X0X0X0X0X0X0X0X0X0X0X0X0X0Xg.. . . . . . W.0X0X0X0X0X0X0X0X0X0X6X0XV . .             ",
"          ! . . W.4X0X2X0X0X0X0X0X0X2X0X0X2X0X0X0X0X2X1 . . . . . . E 0X0X0X2X0X0X2X2X0X0X0X2X0X$ . .           ",
"          . . &.1X4X2X2X2X2X2X2X2X2X2X2X2X2X2X2X2X2X2X. . . . . . . y 4X2X2X2X2X4X4X2X2X2X2X2X2XnX. . .         ",
"        l . : <X1X2X2X2X2X2X2X2X2X2X2X2X2X2X2X2X2X2X4X. . . . . . . m 2X2X2X2X2X2X2X2X2X2X2X2X2X2XX.. .         ",
"        . . R.<X<X<X<X<X<X<X<X<X<X<X<X<X<X<X<X<X<X<X<X] . . . . . . f.<X<X1X<X<X<X<X<X1X<X<X<X<Xl.. . .         ",
"      l . M <X-X<X-X<X-X-X<X-X<X<X<X-X1X-X<X-X<X-X<X-X-Xd . . . . ^ <X-X<X-X-X<X-X<X-X<X-X<XXX. . . .           ",
"      . . ^.-X-X-X-X-X-X-X-X-X-X-X-X-X-X-X-X-X-X-X-X-X-X-XgXF N  X-X-X-X-X-X-X-X-X-X-X-X-XU . . .               ",
"    _ . t -X*X-X=X=X=X=X-X=X-X-X=X=X=X=X-X=X-X-X=X=X=X=X=X=X-X=X-X=X-X*X-X=X=X=X=X-X=X-.. . .                   ",
"    . . 4.%X*X%X=X=X%X=X%X=X%X%X=X$X=X=X-X%X%X%X=X=X$X=X=X$X=X=X%X=X%X%X=X%X=X%X=Xx.. . .                       ",
"    . . #X%X%X%X$X$X$X%X%X%X%X%X$X$X%X%X%X%X%X%X%X%X%X%X$X$X%X%X%X%X%X%X%X$X%X X. . . .                         ",
"   .. z $X$X#X$X$X$X$X$X$X$X$X$X$X$X$X$X$X$X$X$X$X$X$X$X$X$X$X$X$X$X$X$X$X$XY . . .                             ",
"  C . ( #X#X#X#XOX$X$X+X$X#XOX$X$X+X$X$X#X$X#X#X#X#X#X#XOX$X$X+X#X#XOX$X-.. . .                                 ",
"  . . d.$XOXOX$XOX+X+X+X+X+X+X+X+X+XOXOXOXOXOX#X$XOXOX$XOX+X+X+X$XOXz.. . .                                     ",
"  . . T.OXOXOXOX+X|.+X|.OXOXOXOXOXOXOX|.+X|.+X|.OXOX+X|.OXOXOXOX/.- . . .                                       ",
"  . . (.|.|.|.|.|.|.|.|.|.|.|.|.|.|.|.|.|.|.|.|.|.|.|.|.|.|.|.E . . .                                           ",
"  . . |.].|.|.].|.].`.|.|.].|.].|.].].|.].|.|.|.|.].|.].|.3.. . .                                               ",
"MX. . ].].].].].].].|.`.].].].].].].].].].].`.`.(.].].].].d . .                                                 ",
"BX. . _._._._.].)._._._.`._._._._._._.]._._._.`._._._._._.jX. . .                                               ",
"VX. . ~._._.)._.).).).)._._._.)._._._._.).)._._._.).).)._._._.` . . .                                           ",
"  . . K.U.).).).Q.).).Q.).).).U.).Q.).).).U.Q.).).).).~.~.~.~.~.vXs . .                                         ",
"  . . h.Q.Q.Q.U.Q.Q.Q.Q.Q.Q.Q.Q.U.Q.Q.Q.Q.Q.Q.Q.Q.Q.Q.Q.U.).U.~.U.).jX. . .                                     ",
"  . . *.U.U.U.U.U.U.U.U.U.U.U.U.U.U.U.U.U.U.U.U.U.U.U.U.U.U.U.Q.U.Q.U.U.` . . .                                 ",
"  A . W L.U.U.U.U.L.U.U.L.U.L.U.L.U.U.U.U.L.U.U.L.U.L.U.U.U.U.L.U.L.L.U.U.cXs . .                               ",
"  O.. e L.U.L.U.L.L.U.L.L.L.L.U.L.U.L.U.L.L.U.L.L.L.L.U.L.L.U.K.L.L.L.U.U.J.U.jX. . .                           ",
"    . . j.L.L.L.L.L.L.L.L.L.L.L.L.L.L.L.L.L.L.L.L.L.L.L.L.L.L.J.L.L.L.L.L.L.J.J.L.` . . .                       ",
"    . . / J.H.L.J.J.J.H.J.J.J.J.H.L.H.L.J.J.J.J.J.J.H.J.J.J.H.J.L.J.H.J.J.J.H.J.J.J.xXs . .                     ",
"    X.. e H.H.G.H.H.H.G.H.H.H.H.H.G.H.H.J.G.G.J.H.H.H.H.H.H.H.G.G.J.H.G.H.H.H.G.H.H.H.H.jX. . .                 ",
"      . . ,.G.G.H.G.G.G.G.G.G.G.G.G.G.G.G.G.G.G.G.G.G.G.G.G.G.G.G.G.G.G.G.G.G.G.G.G.G.G.G.G.] . . .             ",
"      A . c G.D.G.G.D.G.D.D.G.G.G.D.D.G.D.D.D.D.G.G.D.D.G.G.D.G.G.D.D.G.G.G.D.G.D.G.D.D.G.D.G.zXs . . .         ",
"      CX. . ;.D.S.D.D.D.D.D.D.D.D.D.D.D.D.D.D.D.D.D.D.D.D.D.D.D.D.D.D.D.D.D.D.D.D.D.D.D.D.D.D.D.D.p.. . .       ",
"        H . 8 V.S.S.Z.D.D.D.D.Z.D.D.Z.D.D.Z.D.D.Z.D.Z.D.Z.D.D.D.Z.D.Z.D.Z.D.D.D.Z.D.Z.D.D.D.D.Z.D.S . .         ",
"          . . P V.Z.D.Z.Z.Z.Z.Z.Z.Z.D.Z.Z.Z.Z.Z.Z.Z.Z.D.Z.Z.Z.Z.Z.A.Z.D.Z.Z.Z.Z.Z.Z.D.Z.Z.D.Z.Z.0.. .           ",
"          MX. . #.Z.Z.Z.Z.Z.Z.Z.Z.Z.Z.Z.Z.Z.Z.Z.Z.Z.Z.Z.Z.Z.Z.Z.Z.Z.Z.Z.Z.Z.Z.Z.Z.Z.Z.Z.Z.Z.Z.M.* . .           ",
"            H . . 2.Z.Z.Z.Z.M.Z.V.Z.M.Z.M.Z.Z.Z.Z.Z.Z.M.Z.M.Z.Z.Z.Z.M.Z.V.M.Z.Z.Z.M.M.V.M.Z.Z.4 . .             ",
"              4 . . 6.M.M.M.M.M.M.M.M.M.M.M.M.M.M.M.M.M.M.M.M.M.M.M.M.M.M.M.M.M.M.Z.M.M.M.M.s . .               ",
"                & . . 2.M.M.M.M.M.M.M.M.M.M.M.M.M.M.M.M.M.M.M.M.M.M.M.M.M.M.M.M.M.M.M.M.M.1 . .                 ",
"                  & . . $.M.M.M.M.M.b.M.M.M.M.b.M.M.M.M.M.M.M.M.v.M.M.M.M.M.M.b.M.M.M.c.* . .                   ",
"                    4 . . I w.b.b.b.b.b.b.b.b.b.v.v.v.v.v.v.v.v.v.v.v.v.v.v.v.v.b.b.:.. . .                     ",
"                      F . . 8 :.i.b.i.i.i.b.v.i.u.i.v.v.v.v.v.u.v.v.i.i.v.v.v.v.w.0 . . .                       ",
"                        O.. . . b <.i.i.i.i.i.i.i.i.i.i.b.i.i.i.b.i.i.i.i.i.c.R . . . .                         ",
"                            D . . . e +.q.i.i.i.y.i.i.i.i.i.i.i.b.i.i.i.5.b . . . .                             ",
"                              mXV . . . . z Q >.8.w.i.i.i.i.i.w.7.@.c . . . . .                                 ",
"                                    ] . . . . . . . . . . . . . . . . . . *                                     ",
"                                          { l . . . . . . . . . . 4 s                                           ",
"                                                      _ H                                                       "
};
