/* XPM */
static char *efbdb2fafec94334bbb9edee6938f41cr3bow61BH1HlTgdE[] = {
/* columns rows colors chars-per-pixel */
"56 56 232 2 ",
"   c None",
".  c #1D3D3B",
"X  c #1D3E3C",
"o  c #1E403F",
"O  c #1F4140",
"+  c #1F4242",
"@  c #214647",
"#  c #214748",
"$  c #214849",
"%  c #224A4C",
"&  c #234B4D",
"*  c #234C4E",
"=  c #234D4F",
"-  c #244D4F",
";  c #244E4F",
":  c #245050",
">  c #255051",
",  c #255152",
"<  c #265252",
"1  c #265453",
"2  c #275654",
"3  c #285856",
"4  c #285857",
"5  c #295B58",
"6  c #295B59",
"7  c #2B5B5A",
"8  c #2A5D5A",
"9  c #2A5C5B",
"0  c #2B5C5B",
"q  c #2B5F5B",
"w  c #2B5C5C",
"e  c #2B5C5D",
"r  c #2C5E5C",
"t  c #2C5E5D",
"y  c #2C5F5D",
"u  c #2C5F5E",
"i  c #2F625D",
"p  c #2C605E",
"a  c #2D615F",
"s  c #2D625F",
"d  c #2E645F",
"f  c #2E5F63",
"g  c #2D5E64",
"h  c #2E5E65",
"j  c #2E5F66",
"k  c #2D6061",
"l  c #2F6460",
"z  c #2F6561",
"x  c #2E6066",
"c  c #2F6066",
"v  c #2E6166",
"b  c #306267",
"n  c #316964",
"m  c #326965",
"M  c #316866",
"N  c #316867",
"B  c #326A66",
"V  c #336B66",
"C  c #336B67",
"Z  c #346B64",
"A  c #306269",
"S  c #31646D",
"D  c #32666C",
"F  c #32656E",
"G  c #32656F",
"H  c #33666F",
"J  c #33676F",
"K  c #326968",
"L  c #336969",
"P  c #346D68",
"I  c #346E68",
"U  c #356E69",
"Y  c #346F69",
"T  c #356F6A",
"R  c #346A6E",
"E  c #35706A",
"W  c #36736D",
"Q  c #39756F",
"!  c #39766F",
"~  c #336870",
"^  c #346871",
"/  c #356B71",
"(  c #346972",
")  c #346A72",
"_  c #346A73",
"`  c #356C70",
"'  c #356B75",
"]  c #366D74",
"[  c #366E74",
"{  c #366D77",
"}  c #366E77",
"|  c #3C6D75",
" . c #366E78",
".. c #376E78",
"X. c #376F79",
"o. c #387371",
"O. c #387570",
"+. c #397770",
"@. c #387075",
"#. c #387375",
"$. c #397575",
"%. c #3A7777",
"&. c #3A7971",
"*. c #3A7A72",
"=. c #3B7A73",
"-. c #3B7B73",
";. c #3B7A76",
":. c #3C7C74",
">. c #3C7D75",
",. c #377079",
"<. c #387079",
"1. c #38707A",
"2. c #39727B",
"3. c #39737B",
"4. c #397478",
"5. c #39747B",
"6. c #39737C",
"7. c #3A747C",
"8. c #3A757C",
"9. c #3A747D",
"0. c #3B757D",
"q. c #3B777E",
"w. c #3C777E",
"e. c #3E777E",
"r. c #3B787A",
"t. c #3D7D78",
"y. c #3D7F78",
"u. c #3E7F78",
"i. c #3E7D7A",
"p. c #3E7F7B",
"a. c #3B787D",
"s. c #3D7B7D",
"d. c #3D7B7E",
"f. c #535353",
"g. c gray33",
"h. c #555555",
"j. c #565656",
"k. c gray34",
"l. c #575D5E",
"z. c #565D5F",
"x. c #585858",
"c. c gray35",
"v. c #5A5A5A",
"b. c #5B5B5B",
"n. c #5A5D5D",
"m. c gray36",
"M. c #5D5D5D",
"N. c gray37",
"B. c #5F5F5F",
"V. c #4D6469",
"C. c #4E6468",
"Z. c #4B686C",
"A. c #4B696E",
"S. c #536163",
"D. c #516467",
"F. c #546466",
"G. c #5C6061",
"H. c #5D6162",
"J. c #476C72",
"K. c #466D73",
"L. c #406D74",
"P. c #446D74",
"I. c #4F6D70",
"U. c #4B7376",
"Y. c #40777E",
"T. c #4C7678",
"R. c #477E7D",
"E. c #507072",
"W. c #606060",
"Q. c #3E8078",
"!. c #3F8178",
"~. c #3F807B",
"^. c #3F807C",
"/. c #40847A",
"(. c #40847B",
"). c #40827E",
"_. c #40827F",
"`. c #41837F",
"'. c #41867C",
"]. c #41857E",
"[. c #42877E",
"{. c #42867F",
"}. c #42877F",
"|. c #3C7880",
" X c #3D7A80",
".X c #3E7B81",
"XX c #3E7C80",
"oX c #3E7C81",
"OX c #3F7C82",
"+X c #3F7D82",
"@X c #407F83",
"#X c #408180",
"$X c #408280",
"%X c #408082",
"&X c #418183",
"*X c #428682",
"=X c #428782",
"-X c #418284",
";X c #428285",
":X c #428286",
">X c #428386",
",X c #428484",
"<X c #438585",
"1X c #438684",
"2X c #438784",
"3X c #438785",
"4X c #438486",
"5X c #438686",
"6X c #438786",
"7X c #448686",
"8X c #438880",
"9X c #438982",
"0X c #448C81",
"qX c #468E83",
"wX c #448B84",
"eX c #448A85",
"rX c #448886",
"tX c #448986",
"yX c #458A86",
"uX c #458B86",
"iX c #458D85",
"pX c #468F84",
"aX c #458C86",
"sX c #468D87",
"dX c #468E86",
"fX c #478F86",
"gX c #468E87",
"hX c #468F87",
"jX c #478F87",
"kX c #479087",
"lX c #479187",
"zX c #489287",
/* pixels */
"                                                                                                                ",
"                                                                                                                ",
"                                                                                                                ",
"                                            B.B.B.B.B.B.B.B.B.B.                                                ",
"                                          B.B.B.B.B.B.B.B.B.B.B.B.B.B.                                          ",
"                                    B.B.B.B.v.j.j.j.j.j.j.j.j.j.k.b.B.B.B.B.                                    ",
"                                  B.B.B.v.v.v.f.f.f.f.f.f.f.f.f.f.v.b.b.B.B.B.                                  ",
"                            W.B.W.B.B.j.j.j.j.j.j.j.f.j.j.f.j.j.f.j.j.j.k.B.B.B.W.W.                            ",
"                            B.B.v.v.v.j.f.f.j.j.j.v.v.v.x.v.v.x.h.f.f.f.h.b.b.b.B.B.                            ",
"                        B.B.B.v.j.j.j.j.j.j.j.j.v.B.M.M.M.M.M.v.k.h.k.k.k.k.j.f.v.B.W.B.                        ",
"                      W.B.B.v.j.f.j.j.v.v.v.v.v.S.Z.I.U.I.I.Z.S.b.b.v.v.k.g.g.f.k.v.B.B.W.                      ",
"                    W.B.B.v.j.f.j.j.j.n.H.H.H.H.Z.,.+X>X4X@X7.A.H.H.B.G.G.k.k.k.f.j.b.B.B.W.                    ",
"                  B.B.B.v.j.j.j.j.v.n.V.J.U.T.T.R.=XeXsXsXeX*XR.T.T.U.J.V.n.x.j.j.j.j.v.B.B.B.                  ",
"                  B.B.v.j.f.j.j.x.l.F.P.w.>X7X,XeXzXsXsXzXzXsXeX>X6X>X0.P.F.n.x.j.j.f.j.v.B.B.                  ",
"              W.B.B.v.j.f.j.j.j.B.C.| Y.>XeXzXsXeX7X7XeXsXsX7X7X6XyXeX>Xw.P.V.B.k.j.f.j.j.v.B.B.W.              ",
"              W.B.v.j.j.j.j.v.z.F.J.w.&XeXeXsXsX,X.X+X&XsX9X@X>X,XsXeXwX&X0.P.D.z.v.j.j.h.k.b.n.W.              ",
"              B.v.f.f.j.j.j.B.F.| w.&XeXlX,X,X>X.XX.,.a.eX=X1.&XkXwX6XjXyX>Xw.| F.B.j.j.j.f.g.b.W.              ",
"            B.B.b.j.j.j.v.z.V.J.w.&XeXeX,X+X.X|.2.X.' [ 9X`.) $.$X,XyXyXyXeX>Xw.J.V.l.v.k.g.j.b.B.B.            ",
"          B.B.B.b.k.j.j.b.F.L.w.4XyXzXeX@X2.X.X.X.[ S R 9X^.A G X.=XlX,X6XkXjX>X0.P.F.n.k.k.k.b.B.B.B.          ",
"          B.B.j.j.j.v.n.V.P.Y.>XeXyXrXeX,X0.' G G G g N [.!.k x R ^.sX+X+X,XtXyX&Xw.P.V.n.x.j.j.j.B.B.          ",
"          B.b.j.f.j.v.H.J.w.>XeXjX7X+X,X9Xd.[ x g g w d &.&.n K ` t.&X0.0.+X7XsXwX>X0.J.G.v.j.f.j.v.B.          ",
"        B.B.B.f.f.j.v.H.U.>XeXeX7X+X2.0.d.9X;.u w w 5 5 0 V /.[.].$.` [ ,.1.+X7XeXwX>XU.H.v.k.f.j.v.B.B.        ",
"      B.B.v.v.j.f.j.v.H.T.4XeX=X.X0.X.' [ ;.&.E s 2 2 2 ; 0 &.:.>.K x G [ X.|.>XjXjX6XT.H.v.j.f.j.j.B.B.        ",
"      B.B.j.f.j.j.j.v.H.T.@X>X@X2.1.X.G x u E 0XY * * * * ; , 4 p w w g G X.|.>XjXjX>XT.H.v.j.j.j.f.j.B.        ",
"      B.B.j.f.j.x.v.S.A.R.eX4X.X,.[ ~ $.W d V kXY * = & # # & > < 3 7 g G [ 7..X4XeXeXR.A.S.v.x.j.f.j.B.        ",
"      B.B.j.f.j.v.M.Z.7.*XsX4X.X1.~ G d.!.d I kXY & & $ X + & & ; 3 s b H X.X.1.@X7XjX*X7.Z.M.v.f.f.j.B.        ",
"      B.B.j.f.f.x.M.I.+XeXzX7X.X1.r.!.O.V 3 n 0XV O O O X O & = , I :.).4.J ) 1.|.7XjXeX@XI.M.v.j.f.j.B.        ",
"      B.B.j.f.j.v.M.U.>XsXsX7X@X1.d.].W d p n R.i O X X X O $ , u &././.t.` [ X..X7XjXjX4XI.M.x.j.f.j.B.        ",
"      B.B.j.f.j.x.B.I.>XjXjX,X.X1.[ ` t././.Q u , # O . X X O s ).Z q d W ].d.X..X,XjXjX,XU.M.v.j.f.j.B.        ",
"      B.B.j.f.f.k.B.I.+XeXjXrX.X1.) R 4.).t.Y > & # @ . O O @ V 0Xn 4 n O.!.0.2..X7XjXeX+XI.M.v.j.f.j.B.        ",
"      B.B.j.f.j.v.B.Z.0.,XkX,X.XX.X.X.G b s 4 ; ; & @ X $ & $ Y lXI n ).d.K ) X..X7XjX=X2.Z.B.v.j.f.j.B.        ",
"      B.B.j.f.j.k.v.F.Z.R.eXeX>X.X0.[ G g 0 4 , > & # # & & & Y 0XI u o.#.) ' 1..X>X7XR.Z.S.v.j.f.f.j.B.        ",
"      B.B.j.f.j.j.j.v.H.T.,XzXjX>X|.X.G g w 0 p 3 , * * * = = Y 0XE u x G X.,.2..X>X>XT.H.v.j.j.j.f.j.B.        ",
"      B.B.B.j.j.f.j.v.H.T.,XjXjX>X|.X.' G x K >.>.+.0 : 2 2 2 k E &.;.[ ' 1.0.+X7XeX>XT.H.v.j.f.j.v.v.B.        ",
"        B.B.v.j.f.j.v.H.T.-XyXyX6X+X2.1.X.` $.[.9X/.V 0 5 5 w w u ;.=Xd.4.2..X7XsXeX>XT.H.v.j.f.j.v.B.B.        ",
"          B.v.j.f.j.v.G.J.0.>XtXkX,X+X0.0.^.d.` n n &.&.s w g g x [ d.=X7X@X7XjXeX>X0.J.H.v.j.f.j.v.B.          ",
"          B.B.j.j.j.v.n.V.P.w.&XeXeX7X+Xd.sX`.~ x k t.[.K f S G G ' 0.,XsXwXeXeX&XY.P.V.n.v.j.j.k.B.B.          ",
"          B.B.B.v.j.j.j.n.F.P.w.>XeXzX7X,XsX=X1.G A !.=XR G [ X.X.X.2.>X,XjXeX>Xw.| F.n.j.j.j.v.B.B.B.          ",
"            B.B.v.j.j.j.v.l.V.J.Y.&XeXeXsXeX,X&X4.) =X9X@.) X.2.d.|..X,XyXeX>Xw.J.C.l.v.j.j.j.v.B.W.            ",
"              W.v.j.f.j.j.j.B.C.| w.>XsXlX,XyXkX&X4.=XwXa.,.X..X>X>X,XjXjX>Xw.| F.B.j.j.j.j.j.v.W.              ",
"              W.B.v.j.j.j.j.v.l.C.J.0.&XeXeXeXyX&X+XeXsX&X+X.X7XjXjXeXwX&X0.P.F.z.j.j.j.f.j.v.B.W.              ",
"              W.B.B.v.j.f.j.j.x.B.V.P.w.>XsXeX>X,X7XsXzXeX,X7XeXjXkXeX>XY.| C.B.v.j.g.j.j.v.B.B.W.              ",
"                  B.B.v.j.f.j.j.k.l.F.P.0.&X,X>XeXzXzXzXsXsXsXeX,X6X&Xa.J.F.z.j.j.g.f.j.v.B.B.                  ",
"                  B.B.B.v.j.g.j.j.v.n.V.J.U.T.T.R.=XeXsXsXeX9XR.T.T.U.J.V.n.v.j.j.j.j.v.B.B.W.                  ",
"                    W.B.B.v.j.f.j.j.k.n.H.H.H.H.Z.1.+X,X>X+X1.A.H.G.H.G.n.j.j.j.f.j.v.B.B.W.                    ",
"                      W.B.B.v.j.f.j.j.v.v.v.v.v.F.Z.I.E.E.A.A.S.b.b.x.b.v.j.j.j.j.v.B.B.W.                      ",
"                        B.B.B.v.f.j.k.j.j.j.j.j.v.B.B.B.B.B.B.v.h.k.k.k.j.j.j.j.B.B.W.W.                        ",
"                            B.B.b.b.b.j.f.f.f.j.k.k.v.v.v.j.v.j.k.f.f.f.j.v.v.v.v.B.                            ",
"                            W.W.W.B.B.j.j.f.j.j.j.j.f.j.j.f.j.j.f.h.f.j.k.B.B.B.W.W.                            ",
"                                  B.B.B.v.B.j.f.f.f.f.f.f.f.f.f.f.x.B.b.B.B.B.                                  ",
"                                    B.B.B.B.B.j.j.j.j.j.j.j.j.j.k.b.B.B.B.B.                                    ",
"                                          B.B.B.B.B.B.B.B.B.B.B.B.B.B.                                          ",
"                                            B.B.B.B.B.B.B.B.B.B.                                                ",
"                                                                                                                ",
"                                                                                                                ",
"                                                                                                                "
};
