/* XPM */
static char *ccab2fe6aa464608aa787e8d1f86cf45fIi9NdCa28rQwUtX[] = {
/* columns rows colors chars-per-pixel */
"56 56 218 2 ",
"   c #1D002C",
".  c #1C0033",
"X  c #1C003C",
"o  c #250026",
"O  c #2C0025",
"+  c #24002B",
"@  c #2C002B",
"#  c #340025",
"$  c #3B0025",
"%  c #34002B",
"&  c #3B002B",
"*  c #240034",
"=  c #2C0033",
"-  c #23003C",
";  c #2B003B",
":  c #330033",
">  c #3B0033",
",  c #33003B",
"<  c #3B003B",
"1  c #440025",
"2  c #4B0025",
"3  c #43002B",
"4  c #4B002C",
"5  c #540024",
"6  c #5B0024",
"7  c #53002B",
"8  c #5C002B",
"9  c #440033",
"0  c #4C0034",
"q  c #44003C",
"w  c #4C003B",
"e  c #530034",
"r  c #570038",
"t  c #5B003B",
"y  c #630025",
"u  c #6C0025",
"i  c #64002C",
"p  c #6C002A",
"a  c #740024",
"s  c #7C0126",
"d  c #73002B",
"f  c #7B002A",
"g  c #630034",
"h  c #6B0035",
"j  c #790038",
"k  c #1C0043",
"l  c #1E004C",
"z  c #1E0056",
"x  c #230044",
"c  c #2B0043",
"v  c #23004B",
"b  c #2B004B",
"n  c #340043",
"m  c #3C0044",
"M  c #33004B",
"N  c #3C004C",
"B  c #220055",
"V  c #2C0053",
"C  c #23005C",
"Z  c #2B005B",
"A  c #330053",
"S  c #3C0054",
"D  c #34005C",
"F  c #3B005C",
"G  c #240063",
"H  c #2B0064",
"J  c #24006B",
"K  c #2B006B",
"L  c #330063",
"P  c #380069",
"I  c #240073",
"U  c #2A0073",
"Y  c #25007B",
"T  c #28007B",
"R  c #440044",
"E  c #4C0143",
"W  c #44004B",
"Q  c #4B004B",
"!  c #530043",
"~  c #5A0045",
"^  c #53004C",
"/  c #430054",
"(  c #4B0053",
")  c #44005C",
"_  c #4B005B",
"`  c #520053",
"'  c #53005C",
"]  c #5B0058",
"[  c #6A0047",
"{  c #760047",
"}  c #6A0057",
"|  c #710053",
" . c #430063",
".. c #4C0063",
"X. c #470069",
"o. c #510062",
"O. c #670067",
"+. c #620074",
"@. c #820026",
"#. c #8A0026",
"$. c #940027",
"%. c #870035",
"&. c #F10531",
"*. c #F30537",
"=. c #E90748",
"-. c #F30647",
";. c #E60857",
":. c #F30657",
">. c #E32F54",
",. c #E60868",
"<. c #F30666",
"1. c #E30979",
"2. c #F20677",
"3. c #DE3766",
"4. c #DE3776",
"5. c #E13567",
"6. c #E13677",
"7. c #CE5A77",
"8. c #DC5679",
"9. c #EF5E7D",
"0. c #240082",
"q. c #21008A",
"w. c #2E02BE",
"e. c #3702BA",
"r. c #760294",
"t. c #4C02AE",
"y. c #5902AD",
"u. c #4603B3",
"i. c #5503B0",
"p. c #6603AA",
"a. c #7604AA",
"s. c #7F05BC",
"d. c #320DCC",
"f. c #2803DC",
"g. c #3703DC",
"h. c #2705EF",
"j. c #3B02F4",
"k. c #4704DC",
"l. c #5705DA",
"z. c #471EDB",
"x. c #581FDD",
"c. c #7D05CA",
"v. c #6706DA",
"b. c #7806D9",
"n. c #691FDE",
"m. c #4723DA",
"M. c #5824DB",
"N. c #6825DC",
"B. c #7723DE",
"V. c #4702F4",
"C. c #5803F4",
"Z. c #6803F3",
"A. c #7803F4",
"S. c #7821E0",
"D. c #88038E",
"F. c #8C05AB",
"G. c #B11CA3",
"H. c #B208B5",
"J. c #AE28AD",
"K. c #D4078C",
"L. c #D80998",
"P. c #E6098A",
"I. c #F10691",
"U. c #DF3787",
"Y. c #DE3798",
"T. c #E13789",
"R. c #CA08A9",
"E. c #D008B3",
"W. c #E706AE",
"Q. c #D937A6",
"!. c #CE37B4",
"~. c #DC5787",
"^. c #DC5798",
"/. c #EE5E86",
"(. c #EC5F95",
"). c #ED6093",
"_. c #DC57A8",
"`. c #C651B1",
"'. c #D958B7",
"]. c #ED5FAD",
"[. c #ED60A7",
"{. c #EA60B8",
"}. c #9609CF",
"|. c #8807D8",
" X c #AF07CB",
".X c #8624DF",
"XX c #9825D8",
"oX c #B328CF",
"OX c #A824D9",
"+X c #8D04E9",
"@X c #8804F4",
"#X c #9A04F3",
"$X c #AD04EB",
"%X c #8B23E1",
"&X c #9A24E1",
"*X c #A523E1",
"=X c #CB06CD",
"-X c #C433C6",
";X c #C003E1",
":X c #B96ECD",
">X c #9A7BE5",
",X c #A97AE6",
"<X c #B879E7",
"1X c #C856C8",
"2X c #D558C9",
"3X c #E15FCA",
"4X c #D376D7",
"5X c #C77AE7",
"6X c #9D83E3",
"7X c #A883E4",
"8X c #B884E6",
"9X c #CFA3DB",
"0X c #C884E6",
"qX c #D184E2",
"wX c #EFD3F2",
"eX c #FCE6FD",
"rX c #FFEDFF",
"tX c #FDF1FF",
/* pixels */
"H.$X$X=X=X;X=X=X=XE.=XW.W.=XW.W.W.W.W.I.I.I.W.I.I.I.I.I.2.2.2.2.2.2.<.<.<.<.<.:.:.:.:.:.-.-.-.-.-.*.&.&.&.&.&.&.",
" X X1X1X1X1X1X1X1X2X2X'.'.2X2X'.'.'.'.'.'._.]._._.]._._.^.[.^._.^.^.^.^.^.^.~.^.~.~.~./.~.8.8.8.8.8.8.8.8.8.&.&.",
"}.OXrXrXrXtXeXrXtXtXtXtXrXrXrXrXeXrXrXrXrXrXrXrXeXeXrXrXrXrXeXrXtXrXrXrXrXrXrXrXrXrXeXeXrXrXrXrXrXrXrXtXtXtX9.&.",
" XoXrX9XoX-X-X-X-X-X-X-X-X!.!.!.!.!.!.Q.Q.Q.Q.Q.Q.Y.Y.Y.Y.Y.Y.T.T.U.U.U.U.6.6.4.4.4.4.5.4.3.3.3.5.5.>.3.7.tX9.&.",
"}.oXrXqX;X=X X X XE.H.E.E.R.R.E.R.L.L.L.R.L.L.P.K.P.P.P.1.1.1.1.1.,.,.,.,.,.,.;.;.;.;.;.=.=.;.=.=.=.*.*.>.tX9.&.",
"}.OXrXqX$XF.+.O.+.O.O.O.O.O.O.} O.} } | | | | { { { { { { j { %.{ %.%.j %.%.%.%.%.%.%.$.$.$.$.$.$.$.$.*.>.tX9.&.",
"}.OXrXqX$XF.o.o.' ' ' ] ' ` ] ` ] ] ~ ~ ~ ~ ~ ~ ~ t t g g g g g g h h h p d h j f f f j %.@.@.@.@.@.$.*.3.tX9.&.",
"}.OXtXqX;XF.o.o.' ' ' ' ' ` ` ` ^ ^ ^ ~ ~ ~ ~ ~ ~ t t ~ t ~ g g g g p h h h d d f d f f f @.@.@.@.@.$.*.3.tX9.&.",
"}.*XeX5X$XF...o.o.' ' _ ' ` ` ` ` ^ ^ ! E ~ ~ ~ r ~ r ~ r r t g g g g i h p p d d d d f s s s @.@.@.$.*.5.tX9.*.",
"}.*XeXqX$XF.X.o.o.' ' _ ( ( ( ( ^ Q Q ^ ! E w ! w w r r r r e 8 t g i g g i p d p d d a s s s s @.@.#.=.5.tX/.*.",
"|.*XrXqX$Xa........._ _ _ ( ( ( Q Q Q Q E E w E w r w r e e e r 8 8 8 g i i i p p d d d a a a @.s s #.=.3.tX/.*.",
"|.*XeX0X$Xa.X....._ _ _ _ ( Q ( ( W E Q R E E w w w w w w e r 7 e 8 r 8 8 i i i p p p a a a a a s s $.=.5.tX/.*.",
"|.*XrX0X$Xa....._ .._ _ _ / / Q W Q W R R q q q q w q w 0 0 0 4 e 7 7 7 8 8 8 y y p p u a u a a a s #.=.8.eX/.=.",
"|.&XtX0X#Xa.X.....) ) _ / / / W W W W R R R q R 9 q 9 9 9 9 0 4 4 4 7 7 7 8 8 8 8 y y p u u u a a a #.=.>.rX/.-.",
"c.}.rX0X#Xa.X. . .) ) / _ / / / W W R m q q < q q > 9 9 9 9 3 3 4 4 4 7 5 7 8 6 8 y y y u u a u a a #.=.3.tX/.-.",
"|..XwX0X#Xs.X.P  .) ) ) / S N W N W m m m < < < < > > > & 3 9 3 3 3 4 4 4 2 5 7 6 6 8 y y y u u a a @.=.5.tX/.-.",
"|..XeX<X#Xp.X. . .F ) S / S S N N N m m < , < > > > > & & & & 3 3 3 1 3 2 2 7 5 7 5 6 6 y y u u u u @.=.5.tX).-.",
"c.XXeX<X+Xp.X. . .) F F S S N N n m n , , , , , , : : : % > & & $ 1 3 1 1 3 2 2 5 5 6 6 y 6 y u u u @.;.6.tX/.=.",
"b.%XrX8X+Xp. . .L ) F S S S M M M M n n , , : : : : : % % % % % # $ $ 1 1 1 2 2 2 5 5 6 6 6 6 y y u @.=.6.rX/.:.",
"b.%XtX0X@Xp.P P L F F F A A M M n n c , , , ; = @ @ @ @ O % % # # $ $ $ $ 1 1 1 2 2 5 5 6 6 6 y y y @.;.6.rX).=.",
"b..XeX<X@Xp.P L L F D D A A M M M n , c ; ; ; = = @ = @ O O O % # # # $ $ 1 1 1 1 2 5 5 5 5 6 6 y y s ;.6.rX/.:.",
"b..XrX0X@Xp.P P F F D D A A V M b c x c ; = * = * = + @ @ @ @ O O O # # # $ $ 1 1 1 2 2 5 5 6 6 y y s ;.6.rX).:.",
"v..XrX8X@Xi.P L D Z D V A V b b c x c ; ; * * * * @ + + o @ @ o O O O # # $ $ 1 1 1 1 2 5 5 5 6 6 y s ;.6.tX).:.",
"b..XrX8X@Xi.P P L D V D V V b b c c x ; X * * * + * + + + o o o O O # O # # $ $ 1 1 1 2 2 5 5 5 6 6 a ,.6.tX).:.",
"v.S.rX8XA.y.P P L L Z V V V b b c c x - X X . .   *   + + o o o o O O O O # # $ $ 1 1 2 2 2 2 5 5 6 d ;.6.rX(.:.",
"v.S.rX8XA.y.P K L H Z V V V b v v x x - - . . . .   +       o o o o O O O # # $ $ $ 1 1 1 2 5 5 5 6 d ,.6.tX(.<.",
"v.S.eX8XA.i.U P L H Z Z B v v b v x x X X . . . .               o o o o O O # $ $ $ 1 1 2 2 2 5 5 5 d ,.6.tX[.<.",
"v.S.rX<XA.i.K K H Z H Z B V v v x x x X - X . .   .       o     o o o O O O O # $ $ 1 1 1 1 2 2 5 7 d ,.U.tX(.<.",
"l.B.rX8XA.i.U K H H H H Z B v l v x k X X X . . .     .     o o o o + o O O % # # $ & 1 1 1 2 5 7 7 d ,.6.rX[.<.",
"v.n.rX8XZ.t.U K K H H B Z B B v l l x k X X X X . . .           + + + o O @ O # # $ & $ 3 2 4 4 5 8 h ,.U.rX(.<.",
"l.n.rX8XZ.t.P K H G H G C B B B v k k k X X X X . . .           + + + + @ @ @ % # # & 3 3 3 4 4 4 7 h 1.U.rX[.<.",
"l.B.rX8XZ.t.U U K H G H C C B B l l k k X X X X X . . .         + + + + @ @ % % % & & 3 3 3 4 4 7 7 h 1.U.tX[.2.",
"l.n.rX7XZ.u.T K K G G G H B B B B l k k k X X X X X . .   .     * + + + @ @ @ % % % & 3 3 3 4 4 e 7 h 1.T.rX[.2.",
"l.n.rX8XZ.u.U J K J H G G C C C B l l l k k k X X X . X X . . . * * * * = % : : % > > 9 9 9 0 0 7 e h 1.T.rX[.2.",
"l.n.rX7XZ.u.T K J J J G G C C C z z l l k X k X X k X X . * . * * * * = = = : : : > > > 9 9 0 0 e 7 [ 1.Y.rX[.2.",
"k.n.rX7XC.u.T U I K J J J C G z B z z l l k k k k X X X X X X . . - = * = ; = : > > > 9 9 9 w 0 w w h 1.Y.rX[.P.",
"k.n.rX7XC.u.T I J I J J J G C G z z z z l l k k k k k k X X - - - ; ; ; ; ; , , > < < < q q w 0 w r [ K.Y.rX].2.",
"k.x.rX8XC.e.T I I I J J J C z G C C C z l z l k k k k k k k k - ; - ; ; ; , , < < > < q q w w w w r [ P.Y.tX{.P.",
"k.x.rX7XC.e.U T I I J J J J J G C z G B z z z l k k k l k k x x x x c c , n n , , < q q R w E E ~ w [ K.Y.rX{.I.",
"k.x.rX7XC.u.T T Y I I I J J J G G G z B z z z z z k l k l l x v x c c c c n n n m m R R R R w ! w ~ [ L.Q.rX{.I.",
"k.x.tX7XC.e.Y T Y I Y I J J J J G G z z G z z z z l v v v v x v b c b c M n n n m W R R E E E E ! ! [ L.Q.rX{.L.",
"k.z.tX7XV.e.0.T Y T I I I J J J J G G z z G z z B B B v v B b B b b M M M M N N N m R W W Q Q E Q ! } L.Q.rX{.P.",
"g.x.tX7XC.e.0.Y Y I Y I I I J J J J G C G z z z B B B B b v V b V V b M M N N S N m W W W Q Q ^ ^ ^ [ L.Q.tX{.I.",
"k.z.rX7XV.e.q.Y Y Y T Y I I J I J J J J J G G G G C Z Z B Z V V V A A A A A S W / / / ( ( ( Q ^ ^ Q } G.G.wX_.K.",
"g.x.rX7XV.e.0.Y q.Y Y Y Y I I I I J J G G G G G C C Z Z Z Z Z V V A A A S S S S / / / / ( ( Q ^ ^ ^ ] K.!.rX`.K.",
"g.z.eX7XV.w.0.0.Y Y Y Y Y I I I I J J J J G G G G Z Z G Z Z D V V D D F F S S F / / ( ( ( ( ( ` ^ Q } R.!.rX'.K.",
"g.z.tX6Xh.d.q.q.q.Y Y Y Y I Y I J I J K J J G H G H H H H Z Z D D F D F F F F ) ) / / ( _ ` ( ` ` Q } R.!.eX`.L.",
"g.z.rX6Xh.w.q.Y q.Y Y q.Y Y Y Y T I I I J K K J H G H H H H L L D L L D F F F ) ) ) _ _ _ _ _ ` ( Q ] R.Q.wX2XW.",
"f.z.eX6Xj.w.q.0.0.0.Y Y Y Y I T I T I I J J K J H K H K L H H L L L L F F L )  .) ) _ _ _ _ ( ( ` Q } H.G.eX3XW.",
"f.z.tX6Xj.w.q.q.q.0.q.0.0.q.Y T Y T T I U U U U U K K P U P P P P P P P  .X. . . . . ...o._ ( ( ' ( ] R.`.rX3XE.",
"f.z.tX6Xj.g.d.w.w.w.e.e.e.e.e.e.e.u.u.u.u.t.t.t.t.t.t.i.i.y.y.y.y.y.p.p.p.p.a.a.r.r.r.a.r.r.r.D.D.D.D.H.J.eX3XR.",
"f.z.tX6Xj.j.j.j.V.V.V.V.V.C.C.C.C.C.C.Z.Z.Z.Z.Z.Z.A.A.A.@XA.@X@X@X#X#X#X#X#X#X$X$X}.}.F. X XH. X=X=X=XH.J.wX`.R.",
"h.m.tX9X>X>X>X>X>X>X>X>X7X>X6X6X,X,X,X,X,X,X,X<X<X,X<X<X<X<X<X<X5X<X<X0X5X5X5X5XqX4X:X:X4X5X4X4X4X4X4X4X9XrX2XE.",
"f.d.tXtXtXtXtXtXtXtXtXtXrXtXtXtXtXtXtXtXrXtXrXrXtXtXtXtXtXtXtXtXrXrXrXtXrXrXrXrXtXwXwXwXwXrXeXrXwXwXrXeXrXeX3XE.",
"f.h.z.m.m.m.m.m.m.M.M.M.M.M.M.M.N.N.N.N.N.B.N.B.B.B.B..X.X.X.X.X%X%X&XXX&X&XOXXXXXXXOXOXXXJ.oXoXoXJ.J.-X-X-X=X=X",
"w.f.f.f.f.f.f.f.g.g.g.g.g.k.g.f.k.k.k.l.l.l.l.l.v.v.v.v.v.v.b.b.b.b.b.|.|.|.|.|.s.}.}.}.}.F.F. X}.H.F.H.H.H.H.R."
};
